<svg height="512pt" viewBox="0 0 512 512.001" width="512pt" xmlns="http://www.w3.org/2000/svg"><path d="m423.601562 373.941406-39.054687-39.054687c-1.535156-1.539063-3.65625-2.339844-5.828125-2.191407-2.164062.144532-4.164062 1.214844-5.484375 2.941407-5.40625 7.066406-11.320313 13.824219-17.574219 20.078125s-13.007812 12.167968-20.078125 17.574218c-1.726562 1.316407-2.796875 3.316407-2.941406 5.484376-.144531 2.167968.65625 4.289062 2.191406 5.828124l39.054688 39.054688c1.414062 1.414062 3.332031 2.207031 5.328125 2.207031 2 0 3.914062-.792969 5.328125-2.207031l39.0625-39.058594c1.410156-1.410156 2.207031-3.328125 2.207031-5.328125-.003906-2-.796875-3.914062-2.210938-5.328125zm0 0" fill="#ffcd2c"/><path d="m366.371094 62.859375c-40.535156-40.535156-94.429688-62.859375-151.757813-62.859375-57.324219 0-111.21875 22.324219-151.753906 62.859375s-62.859375 94.429687-62.859375 151.753906c0 57.328125 22.324219 111.222657 62.859375 151.757813s94.429687 62.859375 151.753906 62.859375c57.328125 0 111.222657-22.324219 151.757813-62.859375s62.859375-94.429688 62.859375-151.757813c0-57.324219-22.324219-111.21875-62.859375-151.753906zm0 0" fill="#ffdf65"/><path d="m214.304688 45.066406c-92.925782 0-168.523438 75.597656-168.523438 168.523438 0 92.925781 75.597656 168.523437 168.523438 168.523437 92.925781 0 168.523437-75.597656 168.523437-168.523437 0-92.925782-75.597656-168.523438-168.523437-168.523438zm0 0" fill="#e0e0e0"/><path d="m366.371094 62.859375c-40.535156-40.535156-94.429688-62.859375-151.757813-62.859375-5.714843 0-11.398437.230469-17.035156.671875 50.902344 3.972656 98.222656 25.695313 134.71875 62.1875 40.535156 40.535156 62.855469 94.429687 62.855469 151.753906s-22.324219 111.21875-62.855469 151.757813c-36.496094 36.492187-83.816406 58.214844-134.71875 62.1875 5.636719.4375 11.320313.671875 17.035156.671875 57.328125 0 111.222657-22.324219 151.757813-62.859375 40.535156-40.539063 62.859375-94.433594 62.859375-151.757813s-22.324219-111.21875-62.859375-151.753906zm0 0" fill="#ffcd2c"/><path d="m214.304688 45.066406c-5.75 0-11.433594.292969-17.039063.855469 84.953125 8.570313 151.488281 80.492187 151.488281 167.667969 0 87.171875-66.535156 159.097656-151.488281 167.667968 5.605469.566407 11.289063.855469 17.039063.855469 92.925781 0 168.523437-75.597656 168.523437-168.523437 0-92.925782-75.597656-168.523438-168.523437-168.523438zm0 0" fill="#c4c4c4"/><path d="m149.394531 196.617188c0-3.320313-2.175781-6.25-5.351562-7.210938-2.464844-.746094-5.019531-1.125-7.59375-1.125-14.441407 0-26.191407 11.75-26.191407 26.191406 0 14.445313 11.75 26.191406 26.191407 26.191406 2.628906 0 5.234375-.390624 7.738281-1.164062 3.304688-1.019531 5.488281-4.15625 5.300781-7.605469-.0625-1.171875-.09375-2.328125-.09375-3.429687zm0 0" fill="#eaa37d"/><path d="m286.980469 188.28125c-2.574219 0-5.128907.378906-7.59375 1.125-3.175781.960938-5.351563 3.890625-5.351563 7.210938v31.84375c0 1.109374-.03125 2.265624-.09375 3.433593-.1875 3.449219 1.996094 6.582031 5.300782 7.605469 2.5.773438 5.105468 1.164062 7.738281 1.164062 14.441406 0 26.191406-11.75 26.191406-26.191406.003906-14.441406-11.746094-26.191406-26.191406-26.191406zm0 0" fill="#eaa37d"/><path d="m326.222656 331.800781c-14.703125-26.226562-38.179687-46.648437-66.109375-57.5-2.597656-1.011719-5.542969-.503906-7.65625 1.320313-11.304687 9.777344-25.777343 15.164062-40.742187 15.164062-14.550782 0-28.710938-5.125-39.871094-14.425781-2.144531-1.785156-5.097656-2.242187-7.679688-1.183594-26.429687 10.832031-48.863281 30.464844-63.167968 55.273438-1.785156 3.101562-1.148438 7.027343 1.53125 9.402343 30.835937 27.351563 70.53125 42.417969 111.777344 42.417969 40.519531 0 79.683593-14.59375 110.277343-41.089843 2.703125-2.339844 3.390625-6.261719 1.640625-9.378907zm0 0" fill="#ff3d43"/><path d="m326.222656 331.800781c-14.703125-26.226562-38.179687-46.648437-66.109375-57.5-2.597656-1.011719-5.542969-.503906-7.65625 1.320313-5.910156 5.113281-12.6875 9.007812-19.945312 11.578125 30.675781 12.867187 56.421875 35.816406 72.773437 64.984375.5.886718.824219 1.828125.988282 2.785156 6.378906-4.15625 12.5-8.753906 18.308593-13.789062 2.703125-2.339844 3.390625-6.261719 1.640625-9.378907zm0 0" fill="#d72e2e"/><path d="m249.988281 290.835938c-.125-2.535157-1.511719-4.835938-3.699219-6.125-2.183593-1.289063-4.871093-1.390626-7.148437-.273438-8.578125 4.210938-17.804687 6.347656-27.425781 6.347656-8.59375 0-16.921875-1.722656-24.75-5.113281-2.332032-1.007813-5.011719-.777344-7.132813.613281-2.082031 1.367188-3.351562 3.675782-3.398437 6.160156v.1875c0 20.292969 16.507812 36.800782 36.796875 36.800782 20.292969 0 36.800781-16.507813 36.800781-36.800782.003906-.605468-.015625-1.203124-.042969-1.796874zm0 0" fill="#ffc89f"/><path d="m283.753906 189.402344c-.386718-.117188-25.65625-8.101563-39.695312-30.769532-1.375-2.21875-3.804688-3.550781-6.414063-3.550781-.019531 0-.039062 0-.0625 0-2.628906.023438-5.066406 1.429688-6.414062 3.6875-.707031 1.179688-17.738281 28.890625-58.90625 29.421875-10.597657.140625-19.984375-1.203125-27.910157-3.980468-2.304687-.804688-4.859374-.445313-6.851562.96875-1.992188 1.410156-3.175781 3.703124-3.175781 6.144531v37.140625c0 42.671875 34.71875 77.390625 77.390625 77.390625 42.675781 0 77.390625-34.71875 77.390625-77.390625v-31.847656c0-3.328126-2.179688-6.253907-5.351563-7.214844zm0 0" fill="#ffc89f"/><path d="m283.753906 189.402344c-.300781-.089844-15.585937-4.925782-28.980468-17.679688v56.742188c0 36.769531-25.789063 67.613281-60.226563 75.445312 5.527344 1.257813 11.269531 1.945313 17.167969 1.945313 42.671875 0 77.390625-34.71875 77.390625-77.390625v-31.847656c0-3.328126-2.179688-6.253907-5.351563-7.214844zm0 0" fill="#f7bc94"/><g fill="#464649"><path d="m176.601562 238.828125c-6.492187 0-11.777343-5.28125-11.777343-11.773437 0-6.492188 5.285156-11.777344 11.777343-11.777344 6.492188 0 11.773438 5.285156 11.773438 11.777344 0 6.492187-5.28125 11.773437-11.773438 11.773437zm0 0"/><path d="m246.832031 238.828125c-6.496093 0-11.777343-5.28125-11.777343-11.773437 0-6.492188 5.28125-11.777344 11.777343-11.777344 6.492188 0 11.773438 5.285156 11.773438 11.777344 0 6.492187-5.28125 11.773437-11.773438 11.773437zm0 0"/><path d="m211.714844 269.527344c-10.148438 0-19.003906-6.503906-22.039063-16.183594-1.242187-3.96875.96875-8.199219 4.9375-9.441406 3.972657-1.242188 8.199219.96875 9.445313 4.9375 1.050781 3.363281 4.128906 5.621094 7.65625 5.621094s6.601562-2.257813 7.65625-5.621094c1.242187-3.96875 5.472656-6.179688 9.441406-4.9375 3.972656 1.242187 6.183594 5.472656 4.9375 9.441406-3.03125 9.683594-11.886719 16.183594-22.035156 16.183594zm0 0"/></g><path d="m288.769531 116.203125c-11.945312-12.066406-28.292969-11.039063-36.875-9.390625-5.636719-6.628906-18.871093-16.25-47.773437-15.050781-32.425782 1.351562-53.523438 24.738281-64.859375 37.300781-2.605469 2.894531-4.859375 5.390625-6.351563 6.640625-2.925781 2.453125-14.304687-1.058594-22.132812-5.714844-2.183594-1.3125-4.886719-1.425781-7.175782-.304687-2.292968 1.117187-3.859374 3.320312-4.171874 5.847656-1.578126 12.832031 1.394531 31.742188 14.46875 46.328125 13.019531 14.53125 32.691406 21.730469 58.558593 21.398437 34.628907-.449218 55.285157-17.269531 64.988281-28.042968 17.28125 21.007812 40.847657 28.28125 41.964844 28.617187.710938.210938 1.4375.316407 2.164063.316407 1.542969 0 3.066406-.472657 4.351562-1.386719 9.707031-6.871094 17.210938-22.777344 18.679688-39.585938 1.601562-18.363281-4.023438-35.046875-15.835938-46.972656zm0 0" fill="#6e563d"/><path d="m254.773438 191.207031c12.585937 8.914063 23.871093 12.398438 24.632812 12.625.710938.214844 1.441406.320313 2.164062.320313 1.542969 0 3.066407-.476563 4.355469-1.386719 9.703125-6.871094 17.210938-22.78125 18.675781-39.585937 1.605469-18.367188-4.019531-35.050782-15.832031-46.976563-11.949219-12.066406-28.296875-11.039063-36.875-9.390625 42.160157 32.828125 2.890625 84.378906 2.878907 84.394531zm0 0" fill="#634c38"/><path d="m497.550781 428.101562-64.050781-64.054687c-2.945312-2.941406-7.714844-2.941406-10.65625 0l-58.851562 58.847656c-2.941407 2.945313-2.941407 7.714844 0 10.65625l64.054687 64.054688c9.28125 9.28125 21.625 14.394531 34.753906 14.394531 13.125 0 25.46875-5.113281 34.75-14.394531 19.160157-19.164063 19.160157-50.34375 0-69.503907zm0 0" fill="#6e563d"/><path d="m483.789062 481.4375c-14.875 0-28.863281-5.792969-39.382812-16.3125l-61.320312-61.320312-19.09375 19.089843c-2.941407 2.945313-2.941407 7.714844 0 10.65625l64.054687 64.054688c9.28125 9.28125 21.621094 14.394531 34.75 14.394531s25.472656-5.113281 34.753906-14.394531c6.566407-6.566407 10.882813-14.546875 12.949219-22.972657-8.097656 4.4375-17.222656 6.804688-26.710938 6.804688zm0 0" fill="#634c38"/></svg>